<svg xmlns="http://www.w3.org/2000/svg" xmlns:xlink="http://www.w3.org/1999/xlink" fill="none" version="1.1" width="31.99951171875" height="32.00001525878906" viewBox="0 0 31.99951171875 32.00001525878906"><g><g><g><path d="M24.328295514260464,21.16864678993225C23.282795514260464,20.13654678993225,21.977695514260464,20.13654678993225,20.938895514260466,21.16864678993225C20.146495514260465,21.954346789932252,19.354095514260464,22.74014678993225,18.574995514260465,23.53924678993225C18.361895514260464,23.75894678993225,18.182095514260464,23.80554678993225,17.922395514260465,23.65904678993225C17.409695514260466,23.37934678993225,16.863595514260464,23.15294678993225,16.370895514260464,22.84664678993225C14.073595514260465,21.40174678993225,12.149095514260464,19.54384678993225,10.444495514260465,17.45294678993225C9.598785514260465,16.414146789932254,8.846325514260466,15.302146789932252,8.320275514260466,14.05024678993225C8.213725514260465,13.79724678993225,8.233705514260466,13.630746789932251,8.440135514260465,13.424346789932251C9.232545514260465,12.658566789932252,10.004995514260465,11.872816789932251,10.784095514260466,11.087066789932251C11.869495514260466,9.995006789932251,11.869495514260466,8.71649678993225,10.777395514260466,7.617776789932251C10.158095514260465,6.991846789932251,9.538845514260466,6.37922678993225,8.919575514260465,5.75328678993225C8.280315514260465,5.114036789932252,7.647725514260466,4.468116789932251,7.001815514260465,3.835524789932251C5.956365514260465,2.816713789932251,4.651215514260465,2.816713789932251,3.6124355142604654,3.842183789932251C2.8133655142604654,4.627936789932251,2.047595514260465,5.43365678993225,1.2352055142604652,6.206096789932251C0.4827495142604653,6.918596789932251,0.10319251426046527,7.790906789932251,0.02328591426046528,8.80972678993225C-0.10323348573953472,10.467786789932251,0.3029595142604653,12.032626789932252,0.8756245142604653,13.557546789932251C2.047595514260465,16.71384678993225,3.832175514260465,19.51724678993225,5.996315514260465,22.08754678993225C8.919575514260465,25.56354678993225,12.408795514260465,28.31364678993225,16.490695514260466,30.29794678993225C18.328595514260464,31.19024678993225,20.232995514260466,31.87614678993225,22.303995514260464,31.989346789932252C23.728995514260465,32.06924678993225,24.967495514260467,31.70964678993225,25.959695514260464,30.597646789932252C26.638895514260465,29.838546789932252,27.404695514260464,29.14594678993225,28.123795514260465,28.42014678993225C29.189295514260465,27.341446789932252,29.195895514260464,26.03624678993225,28.137195514260466,24.97084678993225C26.871995514260465,23.69904678993225,25.600095514260467,22.43384678993225,24.328295514260464,21.16864678993225Z" fill="#FFFFFF" fill-opacity="1"/></g><g><path d="M23.056419097900392,15.861491885375976C23.056419097900392,15.861491885375976,25.51354909790039,15.441981885375977,25.51354909790039,15.441981885375977C25.127329097900393,13.184621885375977,24.06190909790039,11.140331885375977,22.44379909790039,9.515561885375977C20.73245909790039,7.804231885375977,18.568319097900392,6.725486885375976,16.18443109790039,6.392541885375977C16.18443109790039,6.392541885375977,15.83816909790039,8.862991885375976,15.83816909790039,8.862991885375976C17.68267909790039,9.122691885375977,19.36072909790039,9.955051885375976,20.68584909790039,11.280171885375976C21.93771909790039,12.532041885375977,22.756759097900392,14.116861885375975,23.056419097900392,15.861491885375976Z" fill="#FFFFFF" fill-opacity="1"/></g><g><path d="M26.898553506469725,5.18062C24.061903506469726,2.34393,20.472763506469725,0.552689,16.510715506469726,0C16.510715506469726,0,16.164453506469727,2.47045,16.164453506469727,2.47045C19.587123506469727,2.94989,22.690173506469726,4.50142,25.14064350646973,6.94523C27.464553506469727,9.26919,28.989453506469726,12.2058,29.542153506469727,15.4353C29.542153506469727,15.4353,31.999353506469724,15.0158,31.999353506469724,15.0158C31.353353506469727,11.2735,29.58875350646973,7.87748,26.898553506469725,5.18062Z" fill="#FFFFFF" fill-opacity="1"/></g></g></g></svg>