<svg xmlns="http://www.w3.org/2000/svg" xmlns:xlink="http://www.w3.org/1999/xlink" fill="none" version="1.1" width="32" height="32" viewBox="0 0 32 32"><defs><clipPath id="master_svg0_0_762"><rect x="0" y="0" width="32" height="32" rx="0"/></clipPath></defs><g><g clip-path="url(#master_svg0_0_762)"><g><path d="M15.3867,29.8013C15.3867,29.8013,15.48,29.8547,15.48,29.8547C15.48,29.8547,15.5173,29.876,15.5173,29.876C15.6654,29.9561,15.831,29.998,15.9993,29.998C16.1676,29.998,16.3333,29.9561,16.481299999999997,29.876C16.481299999999997,29.876,16.518700000000003,29.856,16.518700000000003,29.856C16.518700000000003,29.856,16.613300000000002,29.8013,16.613300000000002,29.8013C17.1348,29.4921,17.643700000000003,29.1621,18.1387,28.812C19.420099999999998,27.9073,20.6174,26.889,21.716,25.7693C24.308,23.116,27,19.1293,27,14C27,11.08262,25.8411,8.28473,23.7782,6.221830000000001C21.7153,4.15893,18.9174,3.0000000000000013,16,3C13.08262,3.0000000000000018,10.28473,4.15893,8.22183,6.221830000000001C6.15893,8.28473,5.000000000000002,11.08262,5,14C5.000000000000001,19.128,7.69333,23.116,10.283999999999999,25.7693C11.38219,26.8889,12.57903,27.9072,13.86,28.812C14.35542,29.1621,14.86473,29.4921,15.3867,29.8013ZM16,18C17.0609,18,18.0783,17.5786,18.828400000000002,16.828400000000002C19.5786,16.0783,20,15.0609,20,14C20,12.93913,19.5786,11.92172,18.828400000000002,11.17157C18.0783,10.42143,17.0609,10,16,10C14.93913,10,13.92172,10.42143,13.17157,11.17157C12.42143,11.92172,12,12.93913,12,14C12,15.0609,12.42143,16.0783,13.17157,16.828400000000002C13.92172,17.5786,14.93913,18,16,18Z" fill-rule="evenodd" fill="#FFFFFF" fill-opacity="1"/></g></g></g></svg>