<svg xmlns="http://www.w3.org/2000/svg" xmlns:xlink="http://www.w3.org/1999/xlink" fill="none" version="1.1" width="278.20928955078125" height="72" viewBox="0 0 278.20928955078125 72"><g><g><path d="M9.632,9.152Q13.92,9.152,16.112,10.416Q18.304,11.68,18.304,14.816Q18.304,16.16,17.808,17.2Q17.312,18.24,16.336,18.928Q15.36,19.616,13.952,19.872L13.952,20.032Q15.392,20.256,16.56,20.864Q17.728,21.472,18.4,22.592Q19.072,23.712,19.072,25.504Q19.072,27.584,18.112,29.04Q17.152,30.496,15.376,31.248Q13.6,32,11.136,32L3.104,32L3.104,9.152L9.632,9.152ZM10.208,18.88Q13.152,18.88,14.24,17.936Q15.328,16.992,15.328,15.136Q15.328,13.248,14,12.432Q12.672,11.616,9.76,11.616L5.984,11.616L5.984,18.88L10.208,18.88ZM5.984,21.28L5.984,29.568L10.592,29.568Q13.632,29.568,14.816,28.384Q16,27.2,16,25.28Q16,24.064,15.472,23.168Q14.944,22.272,13.712,21.776Q12.48,21.28,10.368,21.28L5.984,21.28ZM30.336,32L22.08,32L22.08,30.336L24.768,29.728L24.768,11.456L22.08,10.816L22.08,9.152L30.336,9.152L30.336,10.816L27.648,11.456L27.648,29.728L30.336,30.336L30.336,32ZM47.712,25.888Q47.712,27.936,46.72,29.36Q45.728,30.784,43.888,31.552Q42.048,32.32,39.552,32.32Q38.272,32.32,37.104,32.192Q35.936,32.064,34.976,31.824Q34.016,31.584,33.28,31.232L33.28,28.48Q34.432,28.992,36.144,29.408Q37.856,29.824,39.68,29.824Q41.376,29.824,42.528,29.376Q43.68,28.928,44.256,28.096Q44.832,27.264,44.832,26.144Q44.832,25.024,44.352,24.256Q43.872,23.488,42.704,22.832Q41.536,22.176,39.456,21.44Q37.984,20.896,36.88,20.272Q35.776,19.648,35.04,18.848Q34.304,18.048,33.936,17.024Q33.568,16,33.568,14.656Q33.568,12.832,34.496,11.536Q35.424,10.24,37.072,9.536Q38.72,8.832,40.864,8.832Q42.752,8.832,44.32,9.184Q45.888,9.536,47.168,10.112L46.272,12.576Q45.088,12.064,43.696,11.712Q42.304,11.36,40.8,11.36Q39.36,11.36,38.4,11.776Q37.44,12.192,36.96,12.944Q36.48,13.696,36.48,14.688Q36.48,15.84,36.96,16.608Q37.44,17.376,38.528,17.984Q39.616,18.592,41.472,19.296Q43.488,20.032,44.88,20.88Q46.272,21.728,46.992,22.912Q47.712,24.096,47.712,25.888ZM59.552,32L56.672,32L56.672,11.68L49.536,11.68L49.536,9.152L66.656,9.152L66.656,11.68L59.552,11.68L59.552,32ZM76.416,9.152Q79.264,9.152,81.104,9.872Q82.944,10.592,83.84,12.032Q84.736,13.472,84.736,15.648Q84.736,17.472,84.064,18.688Q83.392,19.904,82.352,20.624Q81.312,21.344,80.16,21.76L86.432,32L83.072,32L77.536,22.56L72.992,22.56L72.992,32L70.112,32L70.112,9.152L76.416,9.152ZM76.256,11.648L72.992,11.648L72.992,20.128L76.416,20.128Q79.2,20.128,80.48,19.024Q81.76,17.92,81.76,15.776Q81.76,14.272,81.168,13.376Q80.576,12.48,79.36,12.064Q78.144,11.648,76.256,11.648ZM109.952,20.544Q109.952,23.2,109.28,25.36Q108.608,27.52,107.28,29.088Q105.952,30.656,103.984,31.488Q102.016,32.32,99.424,32.32Q96.736,32.32,94.752,31.472Q92.768,30.624,91.456,29.072Q90.144,27.52,89.504,25.344Q88.864,23.168,88.864,20.512Q88.864,16.992,90.016,14.368Q91.168,11.744,93.52,10.272Q95.872,8.8,99.456,8.8Q102.88,8.8,105.216,10.256Q107.552,11.712,108.752,14.352Q109.952,16.992,109.952,20.544ZM91.904,20.544Q91.904,23.424,92.704,25.504Q93.504,27.584,95.184,28.704Q96.864,29.824,99.424,29.824Q102.016,29.824,103.664,28.704Q105.312,27.584,106.112,25.504Q106.912,23.424,106.912,20.544Q106.912,16.224,105.12,13.776Q103.328,11.328,99.456,11.328Q96.864,11.328,95.184,12.432Q93.504,13.536,92.704,15.6Q91.904,17.664,91.904,20.544ZM128.704,9.152Q132.992,9.152,135.184,10.416Q137.376,11.68,137.376,14.816Q137.376,16.16,136.88,17.2Q136.384,18.24,135.408,18.928Q134.432,19.616,133.024,19.872L133.024,20.032Q134.464,20.256,135.632,20.864Q136.8,21.472,137.472,22.592Q138.144,23.712,138.144,25.504Q138.144,27.584,137.184,29.04Q136.224,30.496,134.448,31.248Q132.672,32,130.208,32L122.176,32L122.176,9.152L128.704,9.152ZM129.28,18.88Q132.224,18.88,133.312,17.936Q134.4,16.992,134.4,15.136Q134.4,13.248,133.072,12.432Q131.744,11.616,128.832,11.616L125.056,11.616L125.056,18.88L129.28,18.88ZM125.056,21.28L125.056,29.568L129.664,29.568Q132.704,29.568,133.888,28.384Q135.072,27.2,135.072,25.28Q135.072,24.064,134.544,23.168Q134.016,22.272,132.784,21.776Q131.552,21.28,129.44,21.28L125.056,21.28ZM162.912,20.544Q162.912,23.2,162.24,25.36Q161.568,27.52,160.24,29.088Q158.912,30.656,156.944,31.488Q154.976,32.32,152.384,32.32Q149.696,32.32,147.712,31.472Q145.728,30.624,144.416,29.072Q143.104,27.52,142.464,25.344Q141.824,23.168,141.824,20.512Q141.824,16.992,142.976,14.368Q144.128,11.744,146.48,10.272Q148.832,8.8,152.416,8.8Q155.84,8.8,158.176,10.256Q160.512,11.712,161.712,14.352Q162.912,16.992,162.912,20.544ZM144.864,20.544Q144.864,23.424,145.664,25.504Q146.464,27.584,148.144,28.704Q149.824,29.824,152.384,29.824Q154.976,29.824,156.624,28.704Q158.272,27.584,159.072,25.504Q159.872,23.424,159.872,20.544Q159.872,16.224,158.08,13.776Q156.288,11.328,152.416,11.328Q149.824,11.328,148.144,12.432Q146.464,13.536,145.664,15.6Q144.864,17.664,144.864,20.544ZM180.928,25.888Q180.928,27.936,179.936,29.36Q178.944,30.784,177.104,31.552Q175.264,32.32,172.768,32.32Q171.488,32.32,170.32,32.192Q169.152,32.064,168.192,31.824Q167.232,31.584,166.496,31.232L166.496,28.48Q167.648,28.992,169.36,29.408Q171.072,29.824,172.896,29.824Q174.592,29.824,175.744,29.376Q176.896,28.928,177.472,28.096Q178.048,27.264,178.048,26.144Q178.048,25.024,177.568,24.256Q177.088,23.488,175.92,22.832Q174.752,22.176,172.672,21.44Q171.2,20.896,170.096,20.272Q168.992,19.648,168.256,18.848Q167.52,18.048,167.152,17.024Q166.784,16,166.784,14.656Q166.784,12.832,167.712,11.536Q168.64,10.24,170.288,9.536Q171.936,8.832,174.08,8.832Q175.968,8.832,177.536,9.184Q179.104,9.536,180.384,10.112L179.488,12.576Q178.304,12.064,176.912,11.712Q175.52,11.36,174.016,11.36Q172.576,11.36,171.616,11.776Q170.656,12.192,170.176,12.944Q169.696,13.696,169.696,14.688Q169.696,15.84,170.176,16.608Q170.656,17.376,171.744,17.984Q172.832,18.592,174.688,19.296Q176.704,20.032,178.096,20.88Q179.488,21.728,180.208,22.912Q180.928,24.096,180.928,25.888ZM198.496,25.888Q198.496,27.936,197.504,29.36Q196.512,30.784,194.672,31.552Q192.832,32.32,190.336,32.32Q189.056,32.32,187.888,32.192Q186.72,32.064,185.76,31.824Q184.8,31.584,184.064,31.232L184.064,28.48Q185.216,28.992,186.928,29.408Q188.64,29.824,190.464,29.824Q192.16,29.824,193.312,29.376Q194.464,28.928,195.04,28.096Q195.616,27.264,195.616,26.144Q195.616,25.024,195.136,24.256Q194.656,23.488,193.488,22.832Q192.32,22.176,190.24,21.44Q188.768,20.896,187.664,20.272Q186.56,19.648,185.824,18.848Q185.088,18.048,184.72,17.024Q184.352,16,184.352,14.656Q184.352,12.832,185.28,11.536Q186.208,10.24,187.856,9.536Q189.504,8.832,191.648,8.832Q193.536,8.832,195.104,9.184Q196.672,9.536,197.952,10.112L197.056,12.576Q195.872,12.064,194.48,11.712Q193.088,11.36,191.584,11.36Q190.144,11.36,189.184,11.776Q188.224,12.192,187.744,12.944Q187.264,13.696,187.264,14.688Q187.264,15.84,187.744,16.608Q188.224,17.376,189.312,17.984Q190.4,18.592,192.256,19.296Q194.272,20.032,195.664,20.88Q197.056,21.728,197.776,22.912Q198.496,24.096,198.496,25.888Z" fill="#FFFFFF" fill-opacity="1"/></g><g><path d="M7.056,49.864Q9.192,49.864,10.572,50.403999999999996Q11.952,50.944,12.624,52.024Q13.296,53.104,13.296,54.736000000000004Q13.296,56.104,12.792,57.016Q12.288,57.928,11.508,58.468Q10.728,59.007999999999996,9.864,59.32L14.568,67L12.048,67L7.896,59.92L4.488,59.92L4.488,67L2.328,67L2.328,49.864L7.056,49.864ZM6.936,51.736000000000004L4.488,51.736000000000004L4.488,58.096000000000004L7.056,58.096000000000004Q9.144,58.096000000000004,10.104,57.268Q11.064,56.44,11.064,54.832Q11.064,53.704,10.62,53.032Q10.176,52.36,9.264,52.048Q8.352,51.736000000000004,6.936,51.736000000000004ZM31.056,53.896Q32.712,53.896,33.9,54.616Q35.088,55.336,35.724,56.644Q36.36,57.952,36.36,59.704L36.36,60.976L27.552,60.976Q27.6,63.16,28.668,64.3Q29.736,65.44,31.656,65.44Q32.88,65.44,33.828,65.212Q34.776,64.98400000000001,35.784,64.55199999999999L35.784,66.4Q34.8,66.832,33.84,67.036Q32.88,67.24,31.56,67.24Q29.736,67.24,28.332,66.496Q26.928,65.752,26.148,64.276Q25.368,62.8,25.368,60.664Q25.368,58.552,26.076,57.04Q26.784,55.528,28.068,54.712Q29.352,53.896,31.056,53.896ZM31.032,55.624Q29.52,55.624,28.644,56.596000000000004Q27.768,57.568,27.6,59.296L34.152,59.296Q34.152,58.192,33.816,57.376Q33.48,56.56,32.796,56.092Q32.112,55.624,31.032,55.624ZM57.12,63.448Q57.12,64.696,56.496,65.536Q55.872,66.376,54.72,66.80799999999999Q53.568,67.24,51.984,67.24Q50.64,67.24,49.668,67.024Q48.696,66.80799999999999,47.952,66.424L47.952,64.504Q48.72,64.888,49.812,65.212Q50.904,65.536,52.032,65.536Q53.64,65.536,54.36,65.02Q55.08,64.504,55.08,63.64Q55.08,63.16,54.816,62.775999999999996Q54.552,62.391999999999996,53.868,62.007999999999996Q53.184,61.623999999999995,51.912,61.144Q50.664,60.664,49.776,60.184Q48.888,59.704,48.408,59.032Q47.928,58.36,47.928,57.304Q47.928,55.672,49.26,54.784Q50.592,53.896,52.752,53.896Q53.928,53.896,54.948,54.124Q55.968,54.352000000000004,56.856,54.76L56.136,56.44Q55.32,56.104,54.432,55.864000000000004Q53.544,55.624,52.608,55.624Q51.312,55.624,50.628,56.044Q49.944,56.464,49.944,57.184Q49.944,57.712,50.256,58.084Q50.568,58.456,51.3,58.804Q52.032,59.152,53.256,59.632000000000005Q54.48,60.088,55.344,60.568Q56.208,61.048,56.664,61.732Q57.12,62.416,57.12,63.448ZM73.656,65.512Q74.136,65.512,74.64,65.428Q75.144,65.344,75.456,65.248L75.456,66.856Q75.12,67.024,74.496,67.132Q73.872,67.24,73.296,67.24Q72.288,67.24,71.436,66.892Q70.584,66.544,70.056,65.68Q69.528,64.816,69.528,63.256L69.528,55.768L67.704,55.768L67.704,54.76L69.552,53.92L70.392,51.184L71.64,51.184L71.64,54.135999999999996L75.36,54.135999999999996L75.36,55.768L71.64,55.768L71.64,63.208Q71.64,64.384,72.204,64.94800000000001Q72.768,65.512,73.656,65.512ZM92.016,53.92Q94.368,53.92,95.496,54.952Q96.624,55.984,96.624,58.24L96.624,67L95.088,67L94.68,65.176L94.584,65.176Q94.032,65.872,93.444,66.34Q92.856,66.80799999999999,92.1,67.024Q91.344,67.24,90.264,67.24Q89.112,67.24,88.188,66.832Q87.264,66.424,86.736,65.572Q86.208,64.72,86.208,63.424Q86.208,61.504000000000005,87.72,60.46Q89.232,59.416,92.376,59.32L94.56,59.248000000000005L94.56,58.480000000000004Q94.56,56.872,93.864,56.248Q93.168,55.624,91.896,55.624Q90.888,55.624,89.976,55.924Q89.064,56.224000000000004,88.272,56.608000000000004L87.624,55.024Q88.464,54.568,89.616,54.244Q90.768,53.92,92.016,53.92ZM92.64,60.784Q90.24,60.879999999999995,89.316,61.552Q88.392,62.224000000000004,88.392,63.448Q88.392,64.52799999999999,89.052,65.032Q89.712,65.536,90.744,65.536Q92.376,65.536,93.456,64.636Q94.536,63.736000000000004,94.536,61.864000000000004L94.536,60.712L92.64,60.784ZM120.48,54.135999999999996L120.48,67L118.752,67L118.44,65.29599999999999L118.344,65.29599999999999Q117.936,65.968,117.288,66.4Q116.64,66.832,115.872,67.036Q115.104,67.24,114.264,67.24Q112.728,67.24,111.684,66.748Q110.64,66.256,110.112,65.224Q109.584,64.19200000000001,109.584,62.56L109.584,54.135999999999996L111.72,54.135999999999996L111.72,62.416Q111.72,63.952,112.416,64.72Q113.112,65.488,114.576,65.488Q116.016,65.488,116.844,64.94800000000001Q117.672,64.408,118.02,63.364000000000004Q118.368,62.32,118.368,60.832L118.368,54.135999999999996L120.48,54.135999999999996ZM139.68,53.896Q140.04,53.896,140.46,53.932Q140.88,53.968,141.192,54.04L140.928,55.984Q140.616,55.912,140.244,55.864000000000004Q139.872,55.816,139.536,55.816Q138.792,55.816,138.12,56.128Q137.448,56.44,136.92,57.004Q136.392,57.568,136.092,58.36Q135.792,59.152,135.792,60.135999999999996L135.792,67L133.68,67L133.68,54.135999999999996L135.408,54.135999999999996L135.648,56.488L135.744,56.488Q136.152,55.768,136.728,55.18Q137.304,54.592,138.048,54.244Q138.792,53.896,139.68,53.896ZM157.584,53.92Q159.936,53.92,161.064,54.952Q162.192,55.984,162.192,58.24L162.192,67L160.656,67L160.248,65.176L160.152,65.176Q159.6,65.872,159.012,66.34Q158.424,66.80799999999999,157.668,67.024Q156.912,67.24,155.832,67.24Q154.68,67.24,153.756,66.832Q152.832,66.424,152.304,65.572Q151.776,64.72,151.776,63.424Q151.776,61.504000000000005,153.288,60.46Q154.8,59.416,157.944,59.32L160.128,59.248000000000005L160.128,58.480000000000004Q160.128,56.872,159.432,56.248Q158.736,55.624,157.464,55.624Q156.456,55.624,155.544,55.924Q154.632,56.224000000000004,153.84,56.608000000000004L153.192,55.024Q154.032,54.568,155.184,54.244Q156.336,53.92,157.584,53.92ZM158.208,60.784Q155.808,60.879999999999995,154.884,61.552Q153.96,62.224000000000004,153.96,63.448Q153.96,64.52799999999999,154.62,65.032Q155.28,65.536,156.312,65.536Q157.944,65.536,159.024,64.636Q160.104,63.736000000000004,160.104,61.864000000000004L160.104,60.712L158.208,60.784ZM181.488,53.896Q183.792,53.896,184.968,55.012Q186.144,56.128,186.144,58.624L186.144,67L184.056,67L184.056,58.768Q184.056,57.208,183.36,56.44Q182.664,55.672,181.176,55.672Q179.04,55.672,178.224,56.872Q177.408,58.072,177.408,60.328L177.408,67L175.296,67L175.296,54.135999999999996L177,54.135999999999996L177.312,55.888L177.432,55.888Q177.864,55.216,178.5,54.772Q179.136,54.328,179.904,54.112Q180.672,53.896,181.488,53.896ZM203.544,65.512Q204.024,65.512,204.528,65.428Q205.032,65.344,205.344,65.248L205.344,66.856Q205.008,67.024,204.384,67.132Q203.76,67.24,203.184,67.24Q202.176,67.24,201.324,66.892Q200.472,66.544,199.944,65.68Q199.416,64.816,199.416,63.256L199.416,55.768L197.592,55.768L197.592,54.76L199.44,53.92L200.28,51.184L201.528,51.184L201.528,54.135999999999996L205.248,54.135999999999996L205.248,55.768L201.528,55.768L201.528,63.208Q201.528,64.384,202.092,64.94800000000001Q202.656,65.512,203.544,65.512Z" fill="#FFFFFF" fill-opacity="1"/></g></g></svg>