<svg xmlns="http://www.w3.org/2000/svg" xmlns:xlink="http://www.w3.org/1999/xlink" fill="none" version="1.1" width="100.00021362304688" height="100.00000000000001" viewBox="0 0 100.00021362304688 100.00000000000001"><defs><clipPath id="master_svg0_0_207"><rect x="0" y="1.2246515862999796e-14" width="100.00021362304688" height="100" rx="0"/></clipPath></defs><g transform="matrix(1,-1.224648970167536e-16,1.224648970167536e-16,1,-1.4997683039763094e-30,0)" clip-path="url(#master_svg0_0_207)"><g><g><g><path d="M34.6152,46.154272322082534C34.6152,46.154272322082534,21.1534,46.154272322082534,21.1534,46.154272322082534C19.5508,46.154272322082534,18.1883,45.59347232208253,17.0664,44.47157232208254C15.9451,43.34967232208253,15.3837,41.987572322082535,15.3837,40.38447232208254C15.3837,40.38447232208254,15.3837,38.46227232208253,15.3837,38.46227232208253C15.3837,34.21517232208253,16.8864,30.58977232208253,19.8916,27.58457232208253C22.8965,24.580472322082535,26.5226,23.07777232208253,30.7693,23.07777232208253C30.7693,23.07777232208253,34.6152,23.07777232208253,34.6152,23.07777232208253C35.6567,23.07777232208253,36.5578,22.69697232208253,37.3193,21.93607232208253C38.0805,21.174672322082532,38.461,20.273572322082533,38.461,19.23187232208253C38.461,19.23187232208253,38.461,11.538872322082533,38.461,11.538872322082533C38.461,10.497372322082532,38.0802,9.595412322082533,37.3193,8.834072322082532C36.558,8.073781322082532,35.6569,7.692372322082532,34.6152,7.692372322082532C34.6152,7.692372322082532,30.7693,7.692372322082532,30.7693,7.692372322082532C26.6022,7.692372322082532,22.6267,8.504445322082532,18.8402,10.126272322082531C15.0541,11.749152322082532,11.7793,13.942882322082532,9.01446,16.707682322082533C6.24988,19.47117232208253,4.05678,22.746272322082532,2.43411,26.53277232208253C0.811441,30.318872322082534,0,34.295372322082535,0,38.462072322082534C0,38.462072322082534,0,80.76877232208254,0,80.76877232208254C0,83.97557232208253,1.12128,86.69847232208254,3.3649,88.94297232208254C5.60873,91.18617232208253,8.33374,92.30767232208254,11.5387,92.30767232208254C11.5387,92.30767232208254,34.6166,92.30767232208254,34.6166,92.30767232208254C37.8213,92.30767232208254,40.5455,91.18617232208253,42.7895,88.94297232208254C45.0327,86.69847232208254,46.1547,83.97557232208253,46.1547,80.76877232208254C46.1547,80.76877232208254,46.1547,57.692872322082536,46.1547,57.692872322082536C46.1547,54.48667232208253,45.0327,51.76377232208253,42.7881,49.51917232208253C40.5451,47.27617232208253,37.8199,46.154272322082534,34.6152,46.154272322082534Z" fill="#151515" fill-opacity="1"/></g><g><path d="M96.63676387939452,49.519172175951205C94.39376387939453,47.2761721759512,91.66946387939453,46.154272175951206,88.46386387939452,46.154272175951206C88.46386387939452,46.154272175951206,75.00236387939452,46.154272175951206,75.00236387939452,46.154272175951206C73.40056387939453,46.154272175951206,72.03676387939453,45.593472175951206,70.91676387939452,44.47157217595121C69.79446387939453,43.349672175951206,69.23406387939453,41.98757217595121,69.23406387939453,40.38447217595121C69.23406387939453,40.38447217595121,69.23406387939453,38.462272175951206,69.23406387939453,38.462272175951206C69.23406387939453,34.2151721759512,70.73676387939453,30.589772175951204,73.74046387939453,27.5845721759512C76.74436387939453,24.580472175951208,80.37026387939453,23.077772175951203,84.61906387939453,23.077772175951203C84.61906387939453,23.077772175951203,88.46406387939453,23.077772175951203,88.46406387939453,23.077772175951203C89.50576387939452,23.077772175951203,90.40756387939453,22.696972175951203,91.16846387939452,21.936072175951203C91.92896387939453,21.174672175951205,92.31096387939454,20.273572175951205,92.31096387939454,19.231872175951203C92.31096387939454,19.231872175951203,92.31096387939454,11.538872175951205,92.31096387939454,11.538872175951205C92.31096387939454,10.497372175951204,91.92916387939454,9.595412175951205,91.16846387939452,8.834072175951205C90.40776387939454,8.073781175951204,89.50596387939453,7.6923721759512045,88.46406387939453,7.6923721759512045C88.46406387939453,7.6923721759512045,84.61906387939453,7.6923721759512045,84.61906387939453,7.6923721759512045C80.44966387939454,7.6923721759512045,76.47496387939454,8.504445175951204,72.68736387939452,10.126272175951204C68.90196387939453,11.749152175951204,65.62816387939453,13.942882175951205,62.86339387939453,16.707682175951206C60.09859387939453,19.471172175951203,57.904443879394535,22.746272175951205,56.28240387939453,26.5327721759512C54.66015387939453,30.318872175951206,53.84766387939453,34.29537217595121,53.84766387939453,38.46207217595121C53.84766387939453,38.46207217595121,53.84766387939453,80.76877217595121,53.84766387939453,80.76877217595121C53.84766387939453,83.9755721759512,54.97000387939453,86.69847217595121,57.21298387939453,88.94297217595121C59.45618387939453,91.1861721759512,62.18055387939453,92.30767217595121,65.38586387939453,92.30767217595121C65.38586387939453,92.30767217595121,88.46256387939454,92.30767217595121,88.46256387939454,92.30767217595121C91.66816387939454,92.30767217595121,94.39236387939454,91.1861721759512,96.63536387939453,88.94297217595121C98.87996387939452,86.69847217595121,99.99996387939453,83.9755721759512,99.99996387939453,80.76877217595121C99.99996387939453,80.76877217595121,99.99996387939453,57.69287217595121,99.99996387939453,57.69287217595121C100.00016387939453,54.48647217595121,98.87996387939452,51.7637721759512,96.63676387939452,49.519172175951205Z" fill="#151515" fill-opacity="1"/></g></g></g></g></svg>